<?xml version="1.0" encoding="UTF-8"?> <svg xmlns="http://www.w3.org/2000/svg" width="129" height="36" viewBox="0 0 129 36" fill="none"><path d="M37.8467 22.1979H39.5533V18.7792H42.9665V22.1979H44.6731V13.801H42.9665V17.0998H39.5533V13.801H37.8467V22.1979Z" fill="#121619"></path><path d="M46.7241 22.1979H52.7541V20.5185H48.4307V18.7192H51.7302V17.0998H48.4307V15.4804H52.6404V13.801H46.7241V22.1979Z" fill="#121619"></path><path d="M54.2905 22.1979H59.6948V20.5185H55.9971V13.801H54.2905V22.1979Z" fill="#121619"></path><path d="M60.9458 22.1979H66.3501V20.5185H62.6524V13.801H60.9458V22.1979Z" fill="#121619"></path><path d="M70.957 22.3779C73.4032 22.3779 75.2804 20.3986 75.2804 17.9995C75.2804 15.6004 73.4032 13.6211 70.957 13.6211C68.5109 13.6211 66.6336 15.6004 66.6336 17.9995C66.6336 20.3986 68.5109 22.3779 70.957 22.3779ZM70.957 20.6985C69.5349 20.6985 68.3971 19.4989 68.3971 17.9995C68.3971 16.5 69.5349 15.3005 70.957 15.3005C72.3792 15.3005 73.5169 16.5 73.5169 17.9995C73.5169 19.4989 72.3792 20.6985 70.957 20.6985Z" fill="#121619"></path><path d="M80.6198 22.1979H82.2695L83.8851 16.7399H83.9533L85.5689 22.1979H87.2187L89.8354 13.801H88.072L86.4222 19.4389H86.3653L84.7156 13.801H83.1228L81.4731 19.4389H81.4162L79.7665 13.801H78.003L80.6198 22.1979Z" fill="#121619"></path><path d="M94.6228 22.3779C97.069 22.3779 98.9462 20.3986 98.9462 17.9995C98.9462 15.6004 97.069 13.6211 94.6228 13.6211C92.1767 13.6211 90.2994 15.6004 90.2994 17.9995C90.2994 20.3986 92.1767 22.3779 94.6228 22.3779ZM94.6228 20.6985C93.2007 20.6985 92.0629 19.4989 92.0629 17.9995C92.0629 16.5 93.2007 15.3005 94.6228 15.3005C96.045 15.3005 97.1827 16.5 97.1827 17.9995C97.1827 19.4989 96.045 20.6985 94.6228 20.6985Z" fill="#121619"></path><path d="M100.478 22.1979H102.184V19.4389H103.777L105.199 22.1979H107.077L105.427 19.0791C105.427 19.0791 106.792 18.5393 106.792 16.62C106.792 14.9406 105.711 13.801 104.005 13.801H100.478V22.1979ZM102.184 17.7596V15.4804H103.948C104.574 15.4804 105.029 15.9602 105.029 16.62C105.029 17.2797 104.574 17.7596 103.948 17.7596H102.184Z" fill="#121619"></path><path d="M108.5 22.1979H113.904V20.5185H110.206V13.801H108.5V22.1979Z" fill="#121619"></path><path d="M115.155 22.1979H118.056C120.502 22.1979 122.266 20.3386 122.266 17.9995C122.266 15.6603 120.502 13.801 118.056 13.801H115.155V22.1979ZM116.862 20.5185V15.4804H118.056C119.478 15.4804 120.502 16.56 120.502 17.9995C120.502 19.4389 119.478 20.5185 118.056 20.5185H116.862Z" fill="#121619"></path><path d="M5.7433e-06 12.3071C-0.00252888 11.5109 0.834376 11.0099 1.50098 11.4107L13.5732 18.6616C13.8797 18.845 14.0693 19.1854 14.0693 19.5493L14.1104 33.979C14.1129 34.7753 13.276 35.2727 12.6094 34.8745L0.537115 27.6245C0.230602 27.4412 0.0410851 27.1008 0.0410214 26.7368L5.7433e-06 12.3071ZM3.25879 25.8198L5.00196 26.8599L5.0127 23.02L7.89161 24.7388L7.88184 28.5786L9.62501 29.6187L9.6504 20.4399L7.90723 19.3999L7.89649 22.9282L5.01758 21.2105L5.02735 17.6841L3.28419 16.645L3.25879 25.8198Z" fill="#121619"></path><path d="M14.4775 1.11055C14.7866 0.924841 15.1694 0.927591 15.4785 1.11348L27.5605 8.36933C28.2245 8.76744 28.2224 9.75725 27.5585 10.1555L15.3867 17.4191C15.0775 17.6049 14.6948 17.6021 14.3857 17.4162L2.30366 10.1613C1.63963 9.76321 1.64166 8.7724 2.30562 8.37422L14.4775 1.11055ZM14.4648 5.34297L16.7968 7.42793C17.5065 8.02773 18.1859 8.62008 18.8525 9.17012C17.9552 8.75888 17.0775 8.3733 16.0839 7.96992L12.5107 6.5168L10.8076 7.53828L13.1191 9.63398C13.8286 10.2703 14.5178 10.8829 15.1513 11.425C14.315 11.0636 13.248 10.6031 12.2343 10.1867L8.76655 8.75898L7.05073 9.78828L15.8691 13.0305L17.623 11.9777L15.2275 9.74336C14.675 9.21432 14.1144 8.74041 13.458 8.17207C14.3552 8.60688 15.1389 8.93405 15.9931 9.28242L19.6611 10.7551L21.3945 9.71211L16.0917 4.35859L14.4648 5.34297Z" fill="#121619"></path><path d="M28.3406 11.3944C29.0045 10.999 29.8358 11.4907 29.8386 12.284L29.8787 26.7274C29.8787 27.0966 29.6887 27.4395 29.3796 27.6229L17.2078 34.8866C16.5437 35.2818 15.7132 34.7895 15.7107 33.9959L15.6697 19.5536C15.6697 19.1843 15.8595 18.8405 16.1687 18.6571L28.3406 11.3944ZM25.988 17.2635C25.4887 17.2793 24.8045 17.465 23.8464 18.036C21.8821 19.2068 20.6779 21.213 20.6804 22.9051C20.6855 24.3536 21.6086 24.7177 23.0027 24.4793C24.0111 24.2935 24.4112 24.4087 24.4138 25.0292C24.4164 25.6787 23.9576 26.3836 23.0857 26.9022C22.2772 27.3841 21.4789 27.5491 20.9822 27.536L20.6023 29.6131C21.0763 29.6418 22.0214 29.388 22.9792 28.8172C25.2832 27.4447 26.3476 25.3881 26.3425 23.7196C26.3399 22.3183 25.6508 21.8133 24.1707 22.0438C23.0733 22.2114 22.6146 22.2057 22.6121 21.5692C22.6121 21.0663 23.0077 20.3725 23.8289 19.8827C24.6348 19.4007 25.2456 19.3163 25.5701 19.3163L25.988 17.2635Z" fill="#121619"></path></svg> 